# xmcd
#
# Track frame offsets:
#	150
#	12416
#	23579
#	35277
#	45129
#	56854
#	68342
#	80918
#	91863
#	102881
#	114498
#	126680
#	137079
#	149269
#	158865
#	171270
#	181843
#	194777
#	205221
#	215996
#	227649
#	239570
#	251005
#	262730
#	274988
#	286153
#	298932
#
# Disc length: 4138 seconds
#
# Revision: 0
# Processed by: cddbd v1.5.2PL0 Copyright (c) Steve Scherf et al.
# Submitted via: EasyCDDAExtractor 10.0.2.1
#
DISCID=9810281b
DTITLE=Jean Shepard - The Melody Ranch Girl - (1952-1964) - CD1
DYEAR=1996
DGENRE=Country
TTITLE0=twice the lovin' (in half the time) 1952
TTITLE1=crying steel guitar waltz 1952
TTITLE2=keep it a secret 1996
TTITLE3=nobody else can love you like i do 1996
TTITLE4=i'd rather die young (then grow old without you) 1953
TTITLE5=a dear john letter (& ferling husky) 1953
TTITLE6=my wedding ring 1953
TTITLE7=with all these memories 1996
TTITLE8=forgive me, john (& ferlin husky) 1953
TTITLE9=why did you wait 1996
TTITLE10=why did you wait 1954
TTITLE11=you'll come crawlin' 1954
TTITLE12=the mysteries of life 1956
TTITLE13=let's kiss and try again (& ferlin husky) 1954
TTITLE14=the glass that stands beside you 1954
TTITLE15=two whoops and a holler 1954
TTITLE16=don't fall in love with a married man 1954
TTITLE17=what'll you have (& ferlin husky) 1996
TTITLE18=it tickles (& simon crum) 1996
TTITLE19=please don't divorce me 1954
TTITLE20=did you tell her about me 1955
TTITLE21=don't rush me 1954
TTITLE22=you sent her an orchid (you sent me a rose) 1955
TTITLE23=take possession 1955
TTITLE24=a satisfied mind 1955
TTITLE25=beautiful lies 1955
TTITLE26=i thought of you 1955
EXTD=
EXTT0=
EXTT1=
EXTT2=
EXTT3=
EXTT4=
EXTT5=
EXTT6=
EXTT7=
EXTT8=
EXTT9=
EXTT10=
EXTT11=
EXTT12=
EXTT13=
EXTT14=
EXTT15=
EXTT16=
EXTT17=
EXTT18=
EXTT19=
EXTT20=
EXTT21=
EXTT22=
EXTT23=
EXTT24=
EXTT25=
EXTT26=
PLAYORDER=
